<svg height="512pt" viewBox="0 -10 512 511" width="512pt" xmlns="http://www.w3.org/2000/svg"><path d="m122.117188 190.789062c4.144531 0 7.5-3.359374 7.5-7.5v-11.339843c0-4.144531-3.355469-7.5-7.5-7.5-4.140626 0-7.5 3.355469-7.5 7.5v11.339843c0 4.140626 3.359374 7.5 7.5 7.5zm0 0"/><path d="m247.4375 190.789062c4.140625 0 7.5-3.359374 7.5-7.5v-11.339843c0-4.144531-3.359375-7.5-7.5-7.5s-7.5 3.355469-7.5 7.5v11.339843c0 4.140626 3.355469 7.5 7.5 7.5zm0 0"/><path d="m184.777344 196.839844c8.191406 0 15.886718-3.425782 21.113281-9.40625 2.722656-3.117188 2.40625-7.855469-.710937-10.582032-3.117188-2.726562-7.855469-2.410156-10.582032.710938-2.378906 2.71875-5.957031 4.277344-9.820312 4.277344-3.863282 0-7.441406-1.558594-9.816406-4.277344-2.726563-3.121094-7.464844-3.4375-10.582032-.710938-3.121094 2.726563-3.4375 7.464844-.714844 10.582032 5.226563 5.976562 12.921876 9.40625 21.113282 9.40625zm0 0"/><path d="m16.316406 259.367188c3.808594 0 7.382813-1.316407 10.339844-3.808594 17.640625-14.886719 40.453125-19.6875 49.140625-21.039063 14.582031 15.867188 35.488281 25.835938 58.683594 25.835938h100.59375c31.445312 0 58.6875-18.308594 71.652343-44.820313h39.757813c11 0 20.722656 7.40625 23.648437 18.011719 2.273438 8.25 9.730469 14.007813 18.140626 14.007813h32.585937c11.539063 0 20.578125-10.636719 18.8125-22.015626-3.414063-21.984374-14.625-42.164062-31.566406-56.816406-17.125-14.8125-39.007813-22.964844-61.621094-22.964844h-39.757813c-12.960937-26.515624-40.207031-44.820312-71.652343-44.820312h-12.410157v-29.082031c6.554688-1.023438 12.480469-3.964844 17.191407-8.226563l45.660156 12.324219c23.859375 6.441406 48.410156-12.320313 48.410156-37.078125 0-24.726562-24.558593-43.511719-48.410156-37.074219l-45.660156 12.324219c-5.925781-5.363281-13.773438-8.632812-22.375-8.632812h-65.40625c-8.601563 0-16.449219 3.269531-22.375 8.632812l-45.660157-12.324219c-24.046874-6.492187-48.410156 12.167969-48.410156 37.074219 0 24.738281 24.554688 43.515625 48.410156 37.078125l45.660157-12.324219c4.710937 4.261719 10.640625 7.203125 17.191406 8.226563v29.078125h-12.410156c-23.195313 0-44.101563 9.96875-58.683594 25.835937-8.699219-1.355469-31.507813-6.15625-49.140625-21.039062-2.957031-2.492188-6.53125-3.808594-10.339844-3.808594-8.996094 0-16.316406 7.3125-16.316406 16.300781v124.839844c0 8.992188 7.320312 16.304688 16.316406 16.304688zm298.367188-82.410157c-.25-5.472656-1.050782-10.925781-2.410156-16.203125h34.210937c19.007813 0 37.40625 6.859375 51.804687 19.3125 14.257813 12.332032 23.691407 29.296875 26.558594 47.773438.375 2.429687-1.519531 4.714844-3.988281 4.714844h-32.589844c-1.707031 0-3.183593-1.203126-3.679687-2.996094-4.710938-17.089844-20.378906-29.023438-38.105469-29.023438h-34.210937c.300781-1.167968.566406-2.34375.8125-3.523437 1.367187-6.507813 1.902343-13.292969 1.597656-20.054688zm-25.257813-160.675781c14.664063-3.957031 29.5 7.402344 29.5 22.59375 0 15.152344-14.871093 26.546875-29.5 22.597656l-40.652343-10.972656c.5-1.34375.910156-2.730469 1.238281-4.148438 1.246093-5.425781 1.011719-10.902343-.335938-16.285156-.261719-.953125-.558593-1.894531-.902343-2.8125zm-170.695312 24.1875c.164062 3.421875.855469 6.820312 2.050781 10.03125l-40.652344 10.972656c-14.65625 3.957032-29.5-7.402344-29.5-22.597656 0-15.101562 14.957032-26.519531 29.5-22.59375l40.652344 10.972656c-.34375.917969-.640625 1.855469-.902344 2.816406-.917968 3.34375-1.316406 6.90625-1.148437 10.398438zm16.523437 5.550781c-5.3125-11.796875 4.054688-25.527343 16.820313-25.527343h65.40625c9.894531 0 18.382812 8.472656 18.382812 18.382812 0 9.929688-8.445312 18.386719-18.382812 18.386719 0 0-65.371094 0-65.40625 0-7.277344 0-13.90625-4.773438-16.820313-11.242188zm72.410156 26.242188v28.671875h-45.773437v-28.671875zm-137.878906 108.246093c.109375-35.207031 29.527344-64.574218 64.695313-64.574218h100.59375c35.003906 0 64.703125 29.71875 64.710937 64.710937.007813 35.242188-29.527344 64.710938-64.710937 64.710938 0 0-100.527344 0-100.59375 0-34.757813 0-64.804688-30.113281-64.695313-64.847657zm-54.785156-62.285156c0-.980468 1.191406-1.691406 1.980469-1.027344 16.464843 13.894532 36.1875 20.179688 48.84375 22.949219-7.179688 12.191407-11.050781 26.292969-11.050781 40.441407 0 .019531-.003907.039062-.003907.058593s.003907.039063.003907.058594c0 14.125 3.871093 28.246094 11.039062 40.414063-12.507812 2.746093-32.292969 9.027343-48.828125 22.972656-.804687.679687-1.984375-.050782-1.984375-1.023438zm0 0"/><path d="m512 315.140625v-17.703125c0-12.710938-10.339844-23.050781-23.050781-23.050781h-30.855469c-4.144531 0-7.5 3.359375-7.5 7.5s3.355469 7.5 7.5 7.5h30.855469c4.4375 0 8.050781 3.613281 8.050781 8.050781v17.703125c0 4.4375-3.613281 8.050781-8.050781 8.050781h-112.191407c-4.140624 0-7.5 3.359375-7.5 7.5s3.359376 7.5 7.5 7.5h103.800782l-14.625 129.9375c-.574219 5.097656-4.875 8.941406-10.003906 8.941406h-109.03125c-5.128907 0-9.429688-3.84375-10.003907-8.941406l-14.621093-129.9375h24.488281c4.140625 0 7.5-3.359375 7.5-7.5s-3.359375-7.5-7.5-7.5h-32.878907c-4.441406 0-8.054687-3.613281-8.054687-8.050781v-17.703125c0-4.4375 3.613281-8.050781 8.054687-8.050781h114.210938c4.140625 0 7.5-3.359375 7.5-7.5s-3.359375-7.5-7.5-7.5h-114.210938c-12.710937 0-23.054687 10.339843-23.054687 23.050781v17.703125c0 10.335937 6.839844 19.105469 16.234375 22.019531l14.925781 132.648438c1.425781 12.691406 12.136719 22.261718 24.910157 22.261718h109.03125c12.773437 0 23.480468-9.570312 24.910156-22.265624l14.925781-132.644532c9.394531-2.914062 16.234375-11.683594 16.234375-22.019531zm0 0"/></svg>